<?xml version="1.0" encoding="UTF-8"?><svg id="a" xmlns="http://www.w3.org/2000/svg" viewBox="0 0 1000 1000"><defs><style>.b{fill:#004f92;}</style></defs><path class="b" d="M743.46,380.53c-13.32-21.93-43.09-28.2-64.24-31.34l-5.48-.78c24.29,35.25,46.22,72.07,64.24,108.11,2.35-4.7,3.92-7.83,4.7-10.97,9.4-27.42,10.18-49.35,.78-65.02Z"/><g><path class="b" d="M481.81,666.47c11.75,30.55,24.29,46.22,39.17,49.35,18.8,3.92,43.09-11.75,79.12-49.35,7.05-7.83,15.67-17.23,23.5-27.42-41.52,.78-90.87,5.48-148.06,12.53,1.57,2.35,6.27,14.88,6.27,14.88Z"/><path class="b" d="M398.77,497.26c21.93,33.69,42.3,72.07,61.1,116.72,5.48-.78,10.97-1.57,16.45-2.35,54.84-8.62,115.16-11.75,175.48-10.18,32.9-47.79,62.67-98.71,77.56-128.48-21.93-42.3-49.35-83.82-83.82-127.69-50.92-4.7-108.89-3.92-166.86,2.35-8.62,19.58-21.15,48.57-39.95,80.69-15.67,25.85-28.2,48.57-39.95,68.94Z"/><path class="b" d="M747.38,252.84c-65.8-65.8-154.33-102.62-247.55-102.62-78.34,0-152.76,25.07-213.87,72.86-58.75,45.44-102.62,109.67-122.99,180.96,75.21-36.82,174.7-65.02,280.45-80.69,7.05-22.72,12.53-44.65,17.23-63.45,9.4-39.95,16.45-68.94,35.25-73.64,19.58-5.48,51.7,16.45,108.89,75.21h0l43.87,51.7c24.29,1.57,47,4.7,66.59,8.62l2.35,.78c18.02,3.92,56.4,11.75,72.07,39.95,9.4,16.45,9.4,36.82,0,61.1-10.18,28.2-20.37,53.27-32.12,77.56,10.18,24.29,18.02,49.35,25.07,72.86,0,.78,.78,3.13,.78,4.7,.78,5.48-3.92,11.75-3.92,11.75l-1.57,2.35-.78-3.13c-7.05-25.07-15.67-50.14-26.64-74.42-15.67,30.55-32.9,59.54-52.49,87.74,50.92,3.92,95.57,11.75,129.26,21.93,14.88-39.95,22.72-81.47,22.72-124.56-.78-93.22-36.82-180.96-102.62-247.55Z"/><path class="b" d="M365.08,604.58c8.62,12.53,31.34,15.67,74.42,11.75-14.88-38.39-31.34-72.07-48.57-103.41-23.5,43.09-36.82,75.99-25.85,91.66Z"/><path class="b" d="M618.9,312.38c-41.52-49.35-65.8-68.15-82.26-65.8-17.23,3.13-28.2,29.77-45.44,69.72l-.78,1.57c45.44-4.7,88.52-6.27,128.48-5.48Z"/><path class="b" d="M670.6,639.05c-20.37,25.07-43.87,51.7-73.64,82.26-43.87,44.65-67.37,65.02-86.96,60.32-13.32-3.13-23.5-19.58-32.12-50.92-7.83-26.64-15.67-52.49-24.29-76.77l-32.12,4.7c-71.29,10.18-111.24,4.7-125.34-17.23-20.37-31.34,17.23-93.22,68.15-170.78-11.75-17.23-23.5-32.9-36.82-48.57-1.57-1.57-2.35-3.13-3.13-3.92l-1.57-2.35h3.13c4.7,0,9.4,.78,12.53,3.92,11.75,12.53,22.72,25.07,33.69,39.17l4.7-7.83,22.72-35.25c12.53-19.58,23.5-39.95,32.9-63.45-130.83,19.58-224.05,60.32-264,111.24-15.67,18.8-21.15,37.6-17.23,72.07,9.4,80.69,41.52,151.98,101.84,212.3,65.8,65.8,153.54,101.84,246.77,101.84,102.62,0,198.98-44.65,265.57-122.21,15.67-21.15,21.15-39.17,14.1-53.27-10.18-20.37-47-32.12-108.89-35.25Z"/></g></svg>